<svg width="18" height="18" viewBox="0 0 18 18" fill="none" xmlns="http://www.w3.org/2000/svg">
<g opacity="0.8">
<path fill-rule="evenodd" clip-rule="evenodd" d="M4 2C2.89543 2 2 2.89543 2 4V6C2 7.10457 2.89543 8 4 8H6C7.10457 8 8 7.10457 8 6V4C8 2.89543 7.10457 2 6 2H4ZM4 10C2.89543 10 2 10.8954 2 12V14C2 15.1046 2.89543 16 4 16H6C7.10457 16 8 15.1046 8 14V12C8 10.8954 7.10457 10 6 10H4ZM10 4C10 2.89543 10.8954 2 12 2H14C15.1046 2 16 2.89543 16 4V6C16 7.10457 15.1046 8 14 8H12C10.8954 8 10 7.10457 10 6V4ZM12 10C10.8954 10 10 10.8954 10 12V14C10 15.1046 10.8954 16 12 16H14C15.1046 16 16 15.1046 16 14V12C16 10.8954 15.1046 10 14 10H12Z" fill="#EAE6F2"/>
</g>
</svg>
