<svg width="42" height="43" viewBox="0 0 42 43" fill="none" xmlns="http://www.w3.org/2000/svg">
<path d="M21 24.5816L10.5118 30.7211L0 24.5816L10.5118 18.4422L21 24.5816Z" fill="white"/>
<path d="M0 24.5816V36.8605L10.5118 43V30.7211L0 24.5816Z" fill="#DBD2E6"/>
<path d="M21 24.5816V36.8605L10.5118 43V30.7211L21 24.5816Z" fill="#B4A1C8"/>
<path d="M42 24.5816L31.4882 30.7211L21 24.5816L31.4882 18.4422L42 24.5816Z" fill="white"/>
<path d="M21 24.5816V36.8605L31.4882 43V30.7211L21 24.5816Z" fill="#DBD2E5"/>
<path d="M42 24.5816V36.8605L31.4882 43V30.7211L42 24.5816Z" fill="#B4A1C8"/>
<path d="M31.4882 6.13943L21 12.2789L10.5118 6.13943L21 0L31.4882 6.13943Z" fill="white"/>
<path d="M10.5118 6.13943V18.4422L21 24.5816V12.2789L10.5118 6.13943Z" fill="#DBD2E5"/>
<path d="M31.4882 6.13943V18.4422L21 24.5816V12.2789L31.4882 6.13943Z" fill="#B4A1C8"/>
</svg>
