<svg width="42" height="43" viewBox="0 0 42 43" fill="none" xmlns="http://www.w3.org/2000/svg">
<path d="M21 24.8117L10.5118 30.8084L0 24.8117L10.5118 18.815L21 24.8117Z" fill="#D5B5FF"/>
<path d="M0 24.8116V36.805L10.5118 42.8017V30.8084L0 24.8116Z" fill="#A965FF"/>
<path d="M20.9999 24.8116V36.805L10.5117 42.8017V30.8084L20.9999 24.8116Z" fill="#7101FF"/>
<path d="M42 24.8117L31.4882 30.8084L21 24.8117L31.4882 18.815L42 24.8117Z" fill="#D5B5FF"/>
<path d="M21 24.8116V36.805L31.4882 42.8017V30.8084L21 24.8116Z" fill="#A965FF"/>
<path d="M42.0001 24.8116V36.805L31.4883 42.8017V30.8084L42.0001 24.8116Z" fill="#7101FF"/>
<path d="M31.4882 6.79832L20.9999 12.795L10.5117 6.79832L20.9999 0.801666L31.4882 6.79832Z" fill="#D5B5FF"/>
<path d="M10.5117 6.79828V18.8149L20.9999 24.8116V12.7949L10.5117 6.79828Z" fill="#A965FF"/>
<path d="M31.4882 6.79828V18.8149L21 24.8116V12.7949L31.4882 6.79828Z" fill="#7101FF"/>
</svg>
